<svg width="296" height="320" viewBox="0 0 296 320" fill="none" xmlns="http://www.w3.org/2000/svg">
<rect x="46" y="145" width="75" height="75" rx="10" fill="#73CEDD"/>
<path d="M164.752 154.17C168.331 154.061 171.694 155.874 173.571 158.923L199.954 201.787C202.572 206.04 201.651 211.571 197.797 214.747L165.909 241.019C162.772 243.603 158.383 244.032 154.805 242.104L105.584 215.572C102.006 213.644 99.9517 209.742 100.386 205.701L104.803 164.62C105.336 159.655 109.451 155.845 114.443 155.694L164.752 154.17Z" fill="#F7E409"/>
<path d="M131.955 182.989L93.5435 109.256L176.604 112.857L131.955 182.989Z" fill="#12122A"/>
<path d="M103.603 235.388C106.058 244.551 105.26 254.281 101.345 262.921C97.4307 271.561 90.6412 278.576 82.1338 282.772C73.6265 286.967 63.9276 288.083 54.6899 285.929C45.4521 283.775 37.247 278.485 31.4725 270.959C25.6981 263.434 22.7116 254.139 23.022 244.659C23.3323 235.178 26.9203 226.098 33.1746 218.967C39.4288 211.835 47.9624 207.093 57.3213 205.548C66.6801 204.002 76.2852 205.75 84.5 210.493L64 246L103.603 235.388Z" fill="#EF4D2E"/>
<path fill-rule="evenodd" clip-rule="evenodd" d="M218.069 192C243.436 192 264 174.315 264 152.5C264 130.685 243.436 113 218.069 113C197.213 113 179.603 124.954 174 141.33C198.907 141.785 218.935 159.292 218.935 180.821C218.935 184.7 218.285 188.449 217.073 191.991C217.404 191.997 217.736 192 218.069 192Z" fill="#F5F5F5"/>
<path d="M202.953 55.8213C203.962 55.568 205.042 55.517 206.071 55.6723C249.365 62.2069 248.899 74.5106 219.011 105.368C217.985 106.427 216.663 107.19 215.233 107.549L168.697 119.225C164.412 120.301 160.066 117.698 158.991 113.413L149.947 77.369C148.872 73.0836 151.474 68.7379 155.759 67.6626L202.953 55.8213Z" fill="#E9ACCE"/>
<path d="M149.593 2.29205C148.607 0.780877 146.393 0.780871 145.407 2.29205L140.95 9.11892C140.508 9.79565 139.61 10.0007 138.918 9.5827L131.941 5.3656C130.396 4.43211 128.401 5.39263 128.168 7.18219L127.115 15.2667C127.011 16.0681 126.29 16.6427 125.486 16.5661L117.369 15.7941C115.573 15.6232 114.193 17.3539 114.759 19.0674L117.318 26.8083C117.571 27.5757 117.171 28.406 116.413 28.6861L108.766 31.512C107.073 32.1375 106.581 34.2957 107.834 35.5938L113.498 41.4579C114.06 42.0392 114.06 42.9608 113.498 43.5421L107.834 49.4062C106.581 50.7042 107.073 52.8625 108.766 53.488L116.413 56.3139C117.171 56.594 117.571 57.4243 117.318 58.1917L114.759 65.9326C114.193 67.646 115.573 69.3768 117.369 69.2059L125.486 68.4338C126.29 68.3573 127.011 68.9319 127.115 69.7333L128.168 77.8178C128.401 79.6074 130.396 80.5679 131.941 79.6344L138.918 75.4173C139.61 74.9993 140.508 75.2043 140.95 75.8811L145.407 82.7079C146.393 84.2191 148.607 84.2191 149.593 82.708L154.05 75.8811C154.492 75.2044 155.39 74.9993 156.082 75.4173L163.059 79.6344C164.604 80.5679 166.599 79.6074 166.832 77.8178L167.885 69.7333C167.989 68.9319 168.71 68.3573 169.514 68.4338L177.631 69.2059C179.427 69.3768 180.807 67.646 180.241 65.9325L177.682 58.1917C177.429 57.4243 177.829 56.594 178.587 56.3139L186.234 53.488C187.927 52.8625 188.419 50.7042 187.166 49.4062L181.502 43.5421C180.94 42.9608 180.94 42.0392 181.502 41.4579L187.166 35.5938C188.419 34.2958 187.927 32.1375 186.234 31.512L178.587 28.6861C177.829 28.406 177.429 27.5757 177.682 26.8083L180.241 19.0674C180.807 17.3539 179.427 15.6232 177.631 15.7941L169.514 16.5661C168.71 16.6427 167.989 16.0681 167.885 15.2667L166.832 7.18219C166.599 5.39263 164.604 4.43211 163.059 5.3656L156.082 9.5827C155.39 10.0007 154.492 9.79565 154.05 9.11893L149.593 2.29205Z" fill="#F05926" stroke="#F05926"/>
<path d="M237.406 197.31C238.273 194.868 241.727 194.868 242.594 197.31L242.907 198.192C243.636 200.248 246.354 200.678 247.683 198.948L248.253 198.206C249.832 196.151 253.117 197.219 253.187 199.809L253.212 200.745C253.27 202.926 255.722 204.175 257.52 202.94L258.292 202.411C260.429 200.944 263.223 202.974 262.489 205.46L262.223 206.357C261.605 208.449 263.551 210.395 265.643 209.777L266.54 209.511C269.026 208.777 271.056 211.571 269.589 213.708L269.06 214.48C267.825 216.278 269.074 218.73 271.255 218.788L272.191 218.813C274.781 218.883 275.849 222.168 273.794 223.747L273.052 224.317C271.322 225.646 271.752 228.364 273.808 229.093L274.69 229.406C277.132 230.273 277.132 233.727 274.69 234.594L273.808 234.907C271.752 235.636 271.322 238.354 273.052 239.683L273.794 240.253C275.849 241.832 274.781 245.117 272.191 245.187L271.255 245.212C269.074 245.27 267.825 247.722 269.06 249.52L269.589 250.292C271.056 252.429 269.026 255.223 266.54 254.489L265.643 254.223C263.551 253.605 261.605 255.551 262.223 257.643L262.489 258.54C263.223 261.026 260.429 263.056 258.292 261.589L257.52 261.06C255.722 259.825 253.27 261.074 253.212 263.255L253.187 264.191C253.117 266.781 249.832 267.849 248.253 265.794L247.683 265.052C246.354 263.322 243.636 263.752 242.907 265.808L242.594 266.69C241.727 269.132 238.273 269.132 237.406 266.69L237.093 265.808C236.364 263.752 233.646 263.322 232.317 265.052L231.747 265.794C230.168 267.849 226.883 266.781 226.813 264.191L226.788 263.255C226.73 261.074 224.278 259.825 222.48 261.06L221.708 261.589C219.571 263.056 216.777 261.026 217.511 258.54L217.777 257.643C218.395 255.551 216.449 253.605 214.357 254.223L213.46 254.489C210.974 255.223 208.944 252.429 210.411 250.292L210.94 249.52C212.175 247.722 210.926 245.27 208.745 245.212L207.809 245.187C205.219 245.117 204.151 241.832 206.206 240.253L206.948 239.683C208.678 238.354 208.248 235.636 206.192 234.907L205.31 234.594C202.868 233.727 202.868 230.273 205.31 229.406L206.192 229.093C208.248 228.364 208.678 225.646 206.948 224.317L206.206 223.747C204.151 222.168 205.219 218.883 207.809 218.813L208.745 218.788C210.926 218.73 212.175 216.278 210.94 214.48L210.411 213.708C208.944 211.571 210.974 208.777 213.46 209.511L214.357 209.777C216.449 210.395 218.395 208.449 217.777 206.357L217.511 205.46C216.777 202.974 219.571 200.944 221.708 202.411L222.48 202.94C224.278 204.175 226.73 202.926 226.788 200.745L226.813 199.809C226.883 197.219 230.168 196.151 231.747 198.206L232.317 198.948C233.646 200.678 236.364 200.248 237.093 198.192L237.406 197.31Z" fill="#D3D7DE"/>
<circle cx="127.5" cy="271.5" r="34.5" fill="#52757E"/>
<ellipse cx="254.625" cy="274.934" rx="40.5" ry="22.5" fill="#D9D9D9"/>
<path d="M127.564 239.541C-143.456 83.2187 146.1 206.598 165.074 208.34C184.048 210.082 198.017 226.876 196.275 245.85C194.533 264.824 177.739 278.793 158.765 277.051C139.791 275.309 398.584 395.863 127.564 239.541Z" fill="#52757E"/>
<path d="M127.842 187.862L127.408 189.262H130.166L129.732 187.862C129.564 187.349 129.405 186.84 129.256 186.336C129.107 185.823 128.957 185.3 128.808 184.768H128.752C128.612 185.3 128.467 185.823 128.318 186.336C128.169 186.84 128.01 187.349 127.842 187.862ZM125.042 193L128.15 183.816H129.466L132.574 193H131.328L130.46 190.2H127.114L126.232 193H125.042ZM133.763 193V186.196H134.715L134.813 187.176H134.855C135.182 186.849 135.527 186.579 135.891 186.364C136.255 186.14 136.671 186.028 137.137 186.028C137.856 186.028 138.379 186.257 138.705 186.714C139.041 187.162 139.209 187.82 139.209 188.688V193H138.061V188.842C138.061 188.207 137.959 187.745 137.753 187.456C137.548 187.167 137.221 187.022 136.773 187.022C136.428 187.022 136.115 187.111 135.835 187.288C135.565 187.465 135.257 187.727 134.911 188.072V193H133.763ZM143.715 196.136C142.885 196.136 142.208 195.977 141.685 195.66C141.163 195.343 140.901 194.89 140.901 194.302C140.901 194.013 140.99 193.733 141.167 193.462C141.345 193.201 141.587 192.967 141.895 192.762V192.706C141.727 192.603 141.583 192.459 141.461 192.272C141.349 192.085 141.293 191.861 141.293 191.6C141.293 191.311 141.373 191.059 141.531 190.844C141.69 190.629 141.858 190.461 142.035 190.34V190.284C141.811 190.097 141.606 189.845 141.419 189.528C141.242 189.211 141.153 188.851 141.153 188.45C141.153 187.955 141.27 187.526 141.503 187.162C141.737 186.798 142.049 186.518 142.441 186.322C142.833 186.126 143.258 186.028 143.715 186.028C143.902 186.028 144.079 186.047 144.247 186.084C144.415 186.112 144.56 186.149 144.681 186.196H147.047V187.078H145.647C145.806 187.227 145.937 187.428 146.039 187.68C146.151 187.923 146.207 188.189 146.207 188.478C146.207 188.963 146.095 189.383 145.871 189.738C145.647 190.093 145.349 190.368 144.975 190.564C144.602 190.751 144.182 190.844 143.715 190.844C143.351 190.844 143.011 190.765 142.693 190.606C142.572 190.709 142.469 190.825 142.385 190.956C142.301 191.077 142.259 191.231 142.259 191.418C142.259 191.633 142.343 191.81 142.511 191.95C142.689 192.09 143.006 192.16 143.463 192.16H144.779C145.573 192.16 146.165 192.291 146.557 192.552C146.959 192.804 147.159 193.215 147.159 193.784C147.159 194.204 147.019 194.591 146.739 194.946C146.459 195.301 146.063 195.585 145.549 195.8C145.036 196.024 144.425 196.136 143.715 196.136ZM143.715 190.074C144.107 190.074 144.443 189.929 144.723 189.64C145.013 189.341 145.157 188.945 145.157 188.45C145.157 187.955 145.017 187.568 144.737 187.288C144.457 187.008 144.117 186.868 143.715 186.868C143.314 186.868 142.973 187.008 142.693 187.288C142.413 187.568 142.273 187.955 142.273 188.45C142.273 188.945 142.413 189.341 142.693 189.64C142.983 189.929 143.323 190.074 143.715 190.074ZM143.883 195.338C144.537 195.338 145.059 195.193 145.451 194.904C145.843 194.624 146.039 194.307 146.039 193.952C146.039 193.635 145.918 193.415 145.675 193.294C145.442 193.173 145.106 193.112 144.667 193.112H143.491C143.361 193.112 143.216 193.103 143.057 193.084C142.908 193.065 142.759 193.037 142.609 193C142.367 193.177 142.189 193.364 142.077 193.56C141.965 193.756 141.909 193.952 141.909 194.148C141.909 194.512 142.082 194.801 142.427 195.016C142.782 195.231 143.267 195.338 143.883 195.338ZM150.462 193.168C149.744 193.168 149.216 192.944 148.88 192.496C148.544 192.039 148.376 191.376 148.376 190.508V186.196H149.538V190.354C149.538 190.989 149.636 191.451 149.832 191.74C150.038 192.029 150.364 192.174 150.812 192.174C151.167 192.174 151.48 192.085 151.75 191.908C152.03 191.721 152.329 191.427 152.646 191.026V186.196H153.794V193H152.842L152.744 191.936H152.702C152.385 192.309 152.049 192.608 151.694 192.832C151.34 193.056 150.929 193.168 150.462 193.168ZM157.307 193.168C156.878 193.168 156.565 193.037 156.369 192.776C156.183 192.505 156.089 192.123 156.089 191.628V183.032H157.237V191.712C157.237 191.889 157.27 192.02 157.335 192.104C157.401 192.179 157.475 192.216 157.559 192.216C157.597 192.216 157.629 192.216 157.657 192.216C157.695 192.207 157.746 192.197 157.811 192.188L157.965 193.056C157.891 193.093 157.802 193.121 157.699 193.14C157.597 193.159 157.466 193.168 157.307 193.168ZM161.226 193.168C160.656 193.168 160.18 193 159.798 192.664C159.424 192.319 159.238 191.843 159.238 191.236C159.238 190.489 159.569 189.92 160.232 189.528C160.904 189.127 161.963 188.847 163.41 188.688C163.41 188.399 163.368 188.123 163.284 187.862C163.209 187.601 163.069 187.391 162.864 187.232C162.668 187.064 162.383 186.98 162.01 186.98C161.618 186.98 161.249 187.055 160.904 187.204C160.558 187.353 160.25 187.521 159.98 187.708L159.532 186.91C159.849 186.705 160.236 186.509 160.694 186.322C161.16 186.126 161.664 186.028 162.206 186.028C163.036 186.028 163.638 186.285 164.012 186.798C164.385 187.302 164.572 187.979 164.572 188.828V193H163.62L163.522 192.188H163.48C163.162 192.449 162.812 192.678 162.43 192.874C162.056 193.07 161.655 193.168 161.226 193.168ZM161.562 192.244C161.888 192.244 162.196 192.165 162.486 192.006C162.775 191.847 163.083 191.623 163.41 191.334V189.444C162.28 189.584 161.487 189.794 161.03 190.074C160.582 190.354 160.358 190.713 160.358 191.152C160.358 191.535 160.474 191.815 160.708 191.992C160.941 192.16 161.226 192.244 161.562 192.244ZM166.712 193V186.196H167.664L167.762 187.428H167.804C168.038 186.999 168.322 186.658 168.658 186.406C168.994 186.154 169.354 186.028 169.736 186.028C170.007 186.028 170.25 186.075 170.464 186.168L170.24 187.176C170.128 187.139 170.026 187.111 169.932 187.092C169.839 187.073 169.722 187.064 169.582 187.064C169.293 187.064 168.99 187.181 168.672 187.414C168.364 187.647 168.094 188.053 167.86 188.632V193H166.712Z" fill="#12122A"/>
<path d="M76.968 177.168C75.82 177.168 74.9753 176.678 74.434 175.698L75.274 175.11C75.4793 175.474 75.7127 175.74 75.974 175.908C76.2353 176.067 76.5293 176.146 76.856 176.146C77.3507 176.146 77.7193 175.997 77.962 175.698C78.2047 175.39 78.326 174.886 78.326 174.186V167.816H79.502V174.298C79.502 174.821 79.4133 175.301 79.236 175.74C79.068 176.179 78.7973 176.529 78.424 176.79C78.0507 177.042 77.5653 177.168 76.968 177.168ZM83.4426 177.168C82.8732 177.168 82.3972 177 82.0146 176.664C81.6412 176.319 81.4546 175.843 81.4546 175.236C81.4546 174.489 81.7859 173.92 82.4486 173.528C83.1206 173.127 84.1799 172.847 85.6266 172.688C85.6266 172.399 85.5846 172.123 85.5006 171.862C85.4259 171.601 85.2859 171.391 85.0806 171.232C84.8846 171.064 84.5999 170.98 84.2266 170.98C83.8346 170.98 83.4659 171.055 83.1206 171.204C82.7752 171.353 82.4672 171.521 82.1966 171.708L81.7486 170.91C82.0659 170.705 82.4532 170.509 82.9106 170.322C83.3772 170.126 83.8812 170.028 84.4226 170.028C85.2532 170.028 85.8552 170.285 86.2286 170.798C86.6019 171.302 86.7886 171.979 86.7886 172.828V177H85.8366L85.7386 176.188H85.6966C85.3792 176.449 85.0292 176.678 84.6466 176.874C84.2732 177.07 83.8719 177.168 83.4426 177.168ZM83.7786 176.244C84.1052 176.244 84.4132 176.165 84.7026 176.006C84.9919 175.847 85.2999 175.623 85.6266 175.334V173.444C84.4972 173.584 83.7039 173.794 83.2466 174.074C82.7986 174.354 82.5746 174.713 82.5746 175.152C82.5746 175.535 82.6912 175.815 82.9246 175.992C83.1579 176.16 83.4426 176.244 83.7786 176.244ZM90.3993 177L87.9493 170.196H89.1393L90.4273 174.06C90.5299 174.396 90.6326 174.732 90.7353 175.068C90.8473 175.404 90.9546 175.735 91.0573 176.062H91.1133C91.2159 175.735 91.3186 175.404 91.4213 175.068C91.5333 174.732 91.6359 174.396 91.7293 174.06L93.0173 170.196H94.1513L91.7433 177H90.3993ZM96.759 177.168C96.1896 177.168 95.7136 177 95.331 176.664C94.9576 176.319 94.771 175.843 94.771 175.236C94.771 174.489 95.1023 173.92 95.765 173.528C96.437 173.127 97.4963 172.847 98.943 172.688C98.943 172.399 98.901 172.123 98.817 171.862C98.7423 171.601 98.6023 171.391 98.397 171.232C98.201 171.064 97.9163 170.98 97.543 170.98C97.151 170.98 96.7823 171.055 96.437 171.204C96.0916 171.353 95.7836 171.521 95.513 171.708L95.065 170.91C95.3823 170.705 95.7696 170.509 96.227 170.322C96.6936 170.126 97.1976 170.028 97.739 170.028C98.5696 170.028 99.1716 170.285 99.545 170.798C99.9183 171.302 100.105 171.979 100.105 172.828V177H99.153L99.055 176.188H99.013C98.6956 176.449 98.3456 176.678 97.963 176.874C97.5896 177.07 97.1883 177.168 96.759 177.168ZM97.095 176.244C97.4216 176.244 97.7296 176.165 98.019 176.006C98.3083 175.847 98.6163 175.623 98.943 175.334V173.444C97.8136 173.584 97.0203 173.794 96.563 174.074C96.115 174.354 95.891 174.713 95.891 175.152C95.891 175.535 96.0076 175.815 96.241 175.992C96.4743 176.16 96.759 176.244 97.095 176.244Z" fill="#12122A"/>
<path d="M126.26 252V242.816H128.99C129.615 242.816 130.161 242.891 130.628 243.04C131.104 243.189 131.473 243.427 131.734 243.754C132.005 244.081 132.14 244.515 132.14 245.056C132.14 245.513 132.023 245.929 131.79 246.302C131.566 246.666 131.235 246.918 130.796 247.058V247.114C131.347 247.217 131.795 247.45 132.14 247.814C132.495 248.178 132.672 248.677 132.672 249.312C132.672 249.909 132.523 250.409 132.224 250.81C131.935 251.211 131.529 251.51 131.006 251.706C130.483 251.902 129.877 252 129.186 252H126.26ZM127.422 246.722H128.78C129.564 246.722 130.129 246.587 130.474 246.316C130.819 246.045 130.992 245.677 130.992 245.21C130.992 244.678 130.81 244.3 130.446 244.076C130.091 243.852 129.555 243.74 128.836 243.74H127.422V246.722ZM127.422 251.076H129.018C129.811 251.076 130.427 250.931 130.866 250.642C131.305 250.343 131.524 249.886 131.524 249.27C131.524 248.701 131.305 248.285 130.866 248.024C130.437 247.753 129.821 247.618 129.018 247.618H127.422V251.076ZM137.024 252.168C136.474 252.168 135.956 252.028 135.47 251.748C134.994 251.468 134.607 251.062 134.308 250.53C134.019 249.998 133.874 249.359 133.874 248.612C133.874 247.847 134.019 247.198 134.308 246.666C134.607 246.134 134.994 245.728 135.47 245.448C135.956 245.168 136.474 245.028 137.024 245.028C137.584 245.028 138.102 245.168 138.578 245.448C139.054 245.728 139.437 246.134 139.726 246.666C140.025 247.198 140.174 247.847 140.174 248.612C140.174 249.359 140.025 249.998 139.726 250.53C139.437 251.062 139.054 251.468 138.578 251.748C138.102 252.028 137.584 252.168 137.024 252.168ZM137.024 251.216C137.612 251.216 138.084 250.978 138.438 250.502C138.802 250.017 138.984 249.387 138.984 248.612C138.984 247.828 138.802 247.193 138.438 246.708C138.084 246.223 137.612 245.98 137.024 245.98C136.446 245.98 135.974 246.223 135.61 246.708C135.246 247.193 135.064 247.828 135.064 248.612C135.064 249.387 135.246 250.017 135.61 250.502C135.974 250.978 136.446 251.216 137.024 251.216ZM144.612 252.168C144.062 252.168 143.544 252.028 143.058 251.748C142.582 251.468 142.195 251.062 141.896 250.53C141.607 249.998 141.462 249.359 141.462 248.612C141.462 247.847 141.607 247.198 141.896 246.666C142.195 246.134 142.582 245.728 143.058 245.448C143.544 245.168 144.062 245.028 144.612 245.028C145.172 245.028 145.69 245.168 146.166 245.448C146.642 245.728 147.025 246.134 147.314 246.666C147.613 247.198 147.762 247.847 147.762 248.612C147.762 249.359 147.613 249.998 147.314 250.53C147.025 251.062 146.642 251.468 146.166 251.748C145.69 252.028 145.172 252.168 144.612 252.168ZM144.612 251.216C145.2 251.216 145.672 250.978 146.026 250.502C146.39 250.017 146.572 249.387 146.572 248.612C146.572 247.828 146.39 247.193 146.026 246.708C145.672 246.223 145.2 245.98 144.612 245.98C144.034 245.98 143.562 246.223 143.198 246.708C142.834 247.193 142.652 247.828 142.652 248.612C142.652 249.387 142.834 250.017 143.198 250.502C143.562 250.978 144.034 251.216 144.612 251.216ZM151.464 252.168C150.736 252.168 150.227 251.958 149.938 251.538C149.658 251.118 149.518 250.572 149.518 249.9V246.134H148.51V245.266L149.574 245.196L149.714 243.292H150.68V245.196H152.514V246.134H150.68V249.914C150.68 250.334 150.754 250.661 150.904 250.894C151.062 251.118 151.338 251.23 151.73 251.23C151.851 251.23 151.982 251.211 152.122 251.174C152.262 251.127 152.388 251.085 152.5 251.048L152.724 251.916C152.537 251.981 152.332 252.037 152.108 252.084C151.893 252.14 151.678 252.168 151.464 252.168ZM155.694 252.168C155.208 252.168 154.746 252.079 154.308 251.902C153.869 251.715 153.486 251.491 153.16 251.23L153.734 250.46C154.032 250.693 154.34 250.889 154.658 251.048C154.975 251.197 155.334 251.272 155.736 251.272C156.184 251.272 156.52 251.169 156.744 250.964C156.968 250.749 157.08 250.497 157.08 250.208C157.08 249.975 157 249.779 156.842 249.62C156.692 249.461 156.496 249.331 156.254 249.228C156.02 249.116 155.778 249.013 155.526 248.92C155.208 248.799 154.896 248.663 154.588 248.514C154.28 248.355 154.028 248.155 153.832 247.912C153.636 247.66 153.538 247.343 153.538 246.96C153.538 246.409 153.743 245.952 154.154 245.588C154.574 245.215 155.152 245.028 155.89 245.028C156.31 245.028 156.702 245.103 157.066 245.252C157.43 245.401 157.742 245.583 158.004 245.798L157.444 246.526C157.21 246.349 156.968 246.204 156.716 246.092C156.464 245.98 156.188 245.924 155.89 245.924C155.46 245.924 155.143 246.022 154.938 246.218C154.742 246.414 154.644 246.643 154.644 246.904C154.644 247.119 154.714 247.296 154.854 247.436C154.994 247.567 155.176 247.683 155.4 247.786C155.624 247.879 155.862 247.977 156.114 248.08C156.44 248.201 156.762 248.341 157.08 248.5C157.397 248.649 157.658 248.855 157.864 249.116C158.078 249.368 158.186 249.709 158.186 250.138C158.186 250.502 158.088 250.838 157.892 251.146C157.705 251.454 157.425 251.701 157.052 251.888C156.688 252.075 156.235 252.168 155.694 252.168ZM161.649 252.168C160.921 252.168 160.413 251.958 160.123 251.538C159.843 251.118 159.703 250.572 159.703 249.9V246.134H158.695V245.266L159.759 245.196L159.899 243.292H160.865V245.196H162.699V246.134H160.865V249.914C160.865 250.334 160.94 250.661 161.089 250.894C161.248 251.118 161.523 251.23 161.915 251.23C162.037 251.23 162.167 251.211 162.307 251.174C162.447 251.127 162.573 251.085 162.685 251.048L162.909 251.916C162.723 251.981 162.517 252.037 162.293 252.084C162.079 252.14 161.864 252.168 161.649 252.168ZM164.238 252V245.196H165.19L165.288 246.428H165.33C165.563 245.999 165.848 245.658 166.184 245.406C166.52 245.154 166.879 245.028 167.262 245.028C167.533 245.028 167.775 245.075 167.99 245.168L167.766 246.176C167.654 246.139 167.551 246.111 167.458 246.092C167.365 246.073 167.248 246.064 167.108 246.064C166.819 246.064 166.515 246.181 166.198 246.414C165.89 246.647 165.619 247.053 165.386 247.632V252H164.238ZM170.318 252.168C169.748 252.168 169.272 252 168.89 251.664C168.516 251.319 168.33 250.843 168.33 250.236C168.33 249.489 168.661 248.92 169.324 248.528C169.996 248.127 171.055 247.847 172.502 247.688C172.502 247.399 172.46 247.123 172.376 246.862C172.301 246.601 172.161 246.391 171.956 246.232C171.76 246.064 171.475 245.98 171.102 245.98C170.71 245.98 170.341 246.055 169.996 246.204C169.65 246.353 169.342 246.521 169.072 246.708L168.624 245.91C168.941 245.705 169.328 245.509 169.786 245.322C170.252 245.126 170.756 245.028 171.298 245.028C172.128 245.028 172.73 245.285 173.104 245.798C173.477 246.302 173.664 246.979 173.664 247.828V252H172.712L172.614 251.188H172.572C172.254 251.449 171.904 251.678 171.522 251.874C171.148 252.07 170.747 252.168 170.318 252.168ZM170.654 251.244C170.98 251.244 171.288 251.165 171.578 251.006C171.867 250.847 172.175 250.623 172.502 250.334V248.444C171.372 248.584 170.579 248.794 170.122 249.074C169.674 249.354 169.45 249.713 169.45 250.152C169.45 250.535 169.566 250.815 169.8 250.992C170.033 251.16 170.318 251.244 170.654 251.244ZM175.804 254.87V245.196H176.756L176.854 245.98H176.896C177.204 245.719 177.54 245.495 177.904 245.308C178.278 245.121 178.665 245.028 179.066 245.028C179.944 245.028 180.611 245.345 181.068 245.98C181.526 246.605 181.754 247.445 181.754 248.5C181.754 249.265 181.614 249.923 181.334 250.474C181.064 251.025 180.704 251.445 180.256 251.734C179.818 252.023 179.337 252.168 178.814 252.168C178.497 252.168 178.18 252.098 177.862 251.958C177.554 251.818 177.242 251.627 176.924 251.384L176.952 252.574V254.87H175.804ZM178.618 251.202C179.178 251.202 179.64 250.964 180.004 250.488C180.378 250.003 180.564 249.34 180.564 248.5C180.564 247.753 180.424 247.151 180.144 246.694C179.874 246.227 179.416 245.994 178.772 245.994C178.483 245.994 178.189 246.073 177.89 246.232C177.601 246.391 177.288 246.619 176.952 246.918V250.488C177.26 250.749 177.559 250.936 177.848 251.048C178.138 251.151 178.394 251.202 178.618 251.202Z" fill="#12122A"/>
<path d="M226.648 234.168C225.883 234.168 225.201 233.972 224.604 233.58C224.016 233.188 223.554 232.633 223.218 231.914C222.891 231.195 222.728 230.346 222.728 229.366C222.728 228.386 222.891 227.546 223.218 226.846C223.554 226.137 224.016 225.595 224.604 225.222C225.201 224.839 225.883 224.648 226.648 224.648C227.423 224.648 228.104 224.839 228.692 225.222C229.28 225.595 229.742 226.137 230.078 226.846C230.414 227.546 230.582 228.386 230.582 229.366C230.582 230.346 230.414 231.195 230.078 231.914C229.742 232.633 229.28 233.188 228.692 233.58C228.104 233.972 227.423 234.168 226.648 234.168ZM226.648 233.146C227.199 233.146 227.675 232.992 228.076 232.684C228.487 232.367 228.804 231.928 229.028 231.368C229.252 230.799 229.364 230.131 229.364 229.366C229.364 228.227 229.117 227.327 228.622 226.664C228.127 226.001 227.469 225.67 226.648 225.67C225.827 225.67 225.169 226.001 224.674 226.664C224.179 227.327 223.932 228.227 223.932 229.366C223.932 230.131 224.044 230.799 224.268 231.368C224.492 231.928 224.809 232.367 225.22 232.684C225.631 232.992 226.107 233.146 226.648 233.146ZM232.445 234V227.196H233.397L233.495 228.428H233.537C233.77 227.999 234.055 227.658 234.391 227.406C234.727 227.154 235.086 227.028 235.469 227.028C235.74 227.028 235.982 227.075 236.197 227.168L235.973 228.176C235.861 228.139 235.758 228.111 235.665 228.092C235.572 228.073 235.455 228.064 235.315 228.064C235.026 228.064 234.722 228.181 234.405 228.414C234.097 228.647 233.826 229.053 233.593 229.632V234H232.445ZM238.525 234.168C237.955 234.168 237.479 234 237.097 233.664C236.723 233.319 236.537 232.843 236.537 232.236C236.537 231.489 236.868 230.92 237.531 230.528C238.203 230.127 239.262 229.847 240.709 229.688C240.709 229.399 240.667 229.123 240.583 228.862C240.508 228.601 240.368 228.391 240.163 228.232C239.967 228.064 239.682 227.98 239.309 227.98C238.917 227.98 238.548 228.055 238.203 228.204C237.857 228.353 237.549 228.521 237.279 228.708L236.831 227.91C237.148 227.705 237.535 227.509 237.993 227.322C238.459 227.126 238.963 227.028 239.505 227.028C240.335 227.028 240.937 227.285 241.311 227.798C241.684 228.302 241.871 228.979 241.871 229.828V234H240.919L240.821 233.188H240.779C240.461 233.449 240.111 233.678 239.729 233.874C239.355 234.07 238.954 234.168 238.525 234.168ZM238.861 233.244C239.187 233.244 239.495 233.165 239.785 233.006C240.074 232.847 240.382 232.623 240.709 232.334V230.444C239.579 230.584 238.786 230.794 238.329 231.074C237.881 231.354 237.657 231.713 237.657 232.152C237.657 232.535 237.773 232.815 238.007 232.992C238.24 233.16 238.525 233.244 238.861 233.244ZM246.699 234.168C246.102 234.168 245.561 234.028 245.075 233.748C244.59 233.468 244.207 233.062 243.927 232.53C243.647 231.998 243.507 231.359 243.507 230.612C243.507 229.847 243.657 229.198 243.955 228.666C244.263 228.134 244.665 227.728 245.159 227.448C245.663 227.168 246.205 227.028 246.783 227.028C247.231 227.028 247.614 227.107 247.931 227.266C248.258 227.425 248.538 227.611 248.771 227.826L248.183 228.582C247.987 228.405 247.777 228.26 247.553 228.148C247.339 228.036 247.096 227.98 246.825 227.98C246.415 227.98 246.046 228.092 245.719 228.316C245.402 228.531 245.15 228.839 244.963 229.24C244.786 229.632 244.697 230.089 244.697 230.612C244.697 231.387 244.889 232.017 245.271 232.502C245.663 232.978 246.172 233.216 246.797 233.216C247.115 233.216 247.409 233.151 247.679 233.02C247.95 232.88 248.188 232.717 248.393 232.53L248.897 233.3C248.589 233.571 248.249 233.785 247.875 233.944C247.502 234.093 247.11 234.168 246.699 234.168ZM251.614 234.168C251.185 234.168 250.872 234.037 250.676 233.776C250.489 233.505 250.396 233.123 250.396 232.628V224.032H251.544V232.712C251.544 232.889 251.577 233.02 251.642 233.104C251.707 233.179 251.782 233.216 251.866 233.216C251.903 233.216 251.936 233.216 251.964 233.216C252.001 233.207 252.053 233.197 252.118 233.188L252.272 234.056C252.197 234.093 252.109 234.121 252.006 234.14C251.903 234.159 251.773 234.168 251.614 234.168ZM256.722 234.168C256.116 234.168 255.565 234.028 255.07 233.748C254.576 233.459 254.184 233.048 253.894 232.516C253.605 231.984 253.46 231.349 253.46 230.612C253.46 229.865 253.605 229.226 253.894 228.694C254.193 228.162 254.576 227.751 255.042 227.462C255.509 227.173 255.999 227.028 256.512 227.028C257.38 227.028 258.048 227.317 258.514 227.896C258.99 228.475 259.228 229.249 259.228 230.22C259.228 230.341 259.224 230.463 259.214 230.584C259.214 230.696 259.205 230.794 259.186 230.878H254.594C254.641 231.597 254.865 232.171 255.266 232.6C255.677 233.029 256.209 233.244 256.862 233.244C257.189 233.244 257.488 233.197 257.758 233.104C258.038 233.001 258.304 232.871 258.556 232.712L258.962 233.468C258.673 233.655 258.342 233.818 257.968 233.958C257.604 234.098 257.189 234.168 256.722 234.168ZM254.58 230.052H258.22C258.22 229.361 258.071 228.839 257.772 228.484C257.483 228.12 257.072 227.938 256.54 227.938C256.064 227.938 255.635 228.125 255.252 228.498C254.879 228.862 254.655 229.38 254.58 230.052Z" fill="#12122A"/>
<path d="M58.872 264.168C58.0693 264.168 57.3553 263.981 56.73 263.608C56.1047 263.225 55.6147 262.679 55.26 261.97C54.9053 261.261 54.728 260.407 54.728 259.408C54.728 258.419 54.91 257.569 55.274 256.86C55.638 256.151 56.1373 255.605 56.772 255.222C57.4067 254.839 58.13 254.648 58.942 254.648C59.5767 254.648 60.1087 254.769 60.538 255.012C60.9767 255.245 61.3267 255.502 61.588 255.782L60.944 256.538C60.7107 256.295 60.44 256.09 60.132 255.922C59.824 255.754 59.4367 255.67 58.97 255.67C58.354 255.67 57.8173 255.824 57.36 256.132C56.9027 256.431 56.548 256.855 56.296 257.406C56.0533 257.957 55.932 258.615 55.932 259.38C55.932 260.537 56.1933 261.457 56.716 262.138C57.248 262.81 58.004 263.146 58.984 263.146C59.3107 263.146 59.6233 263.099 59.922 263.006C60.2207 262.903 60.4587 262.768 60.636 262.6V260.206H58.69V259.24H61.7V263.104C61.4107 263.412 61.0187 263.669 60.524 263.874C60.0387 264.07 59.488 264.168 58.872 264.168ZM63.9006 264V254.816H65.0626V264H63.9006ZM69.4824 264V255.796H66.7104V254.816H73.4304V255.796H70.6584V264H69.4824Z" fill="#12122A"/>
<path d="M234.26 278V268.816H236.878C237.569 268.816 238.171 268.9 238.684 269.068C239.197 269.236 239.599 269.521 239.888 269.922C240.177 270.314 240.322 270.846 240.322 271.518C240.322 272.479 240.009 273.193 239.384 273.66C238.759 274.127 237.942 274.36 236.934 274.36H235.422V278H234.26ZM235.422 273.408H236.794C237.597 273.408 238.189 273.259 238.572 272.96C238.964 272.652 239.16 272.171 239.16 271.518C239.16 270.855 238.955 270.398 238.544 270.146C238.143 269.885 237.541 269.754 236.738 269.754H235.422V273.408ZM242.19 278V268.816H243.352V277.006H247.37V278H242.19ZM247.878 280.24L251.616 268.06H252.456L248.718 280.24H247.878ZM256.441 278.168C255.797 278.168 255.199 278.047 254.649 277.804C254.098 277.552 253.622 277.221 253.221 276.81L253.921 275.998C254.247 276.343 254.63 276.623 255.069 276.838C255.517 277.043 255.979 277.146 256.455 277.146C257.061 277.146 257.533 277.011 257.869 276.74C258.205 276.46 258.373 276.096 258.373 275.648C258.373 275.331 258.303 275.079 258.163 274.892C258.032 274.705 257.85 274.547 257.617 274.416C257.393 274.285 257.136 274.155 256.847 274.024L255.531 273.45C255.241 273.329 254.952 273.17 254.663 272.974C254.383 272.778 254.145 272.526 253.949 272.218C253.762 271.91 253.669 271.532 253.669 271.084C253.669 270.617 253.79 270.202 254.033 269.838C254.285 269.465 254.63 269.175 255.069 268.97C255.507 268.755 256.002 268.648 256.553 268.648C257.103 268.648 257.612 268.755 258.079 268.97C258.545 269.175 258.942 269.446 259.269 269.782L258.639 270.538C258.359 270.267 258.046 270.057 257.701 269.908C257.365 269.749 256.982 269.67 256.553 269.67C256.039 269.67 255.624 269.791 255.307 270.034C254.999 270.277 254.845 270.603 254.845 271.014C254.845 271.303 254.919 271.546 255.069 271.742C255.227 271.929 255.423 272.083 255.657 272.204C255.89 272.325 256.128 272.437 256.371 272.54L257.673 273.1C258.027 273.249 258.345 273.431 258.625 273.646C258.914 273.851 259.143 274.108 259.311 274.416C259.479 274.715 259.563 275.093 259.563 275.55C259.563 276.035 259.437 276.479 259.185 276.88C258.933 277.272 258.573 277.585 258.107 277.818C257.64 278.051 257.085 278.168 256.441 278.168ZM264.759 277.202C265.31 277.202 265.786 277.048 266.187 276.74C266.598 276.423 266.915 275.979 267.139 275.41C267.363 274.831 267.475 274.15 267.475 273.366C267.475 272.227 267.228 271.327 266.733 270.664C266.239 270.001 265.581 269.67 264.759 269.67C263.938 269.67 263.28 270.001 262.785 270.664C262.291 271.327 262.043 272.227 262.043 273.366C262.043 274.15 262.155 274.831 262.379 275.41C262.603 275.979 262.921 276.423 263.331 276.74C263.742 277.048 264.218 277.202 264.759 277.202ZM267.573 280.31C266.724 280.31 266.015 280.1 265.445 279.68C264.876 279.269 264.456 278.751 264.185 278.126C263.523 278.033 262.939 277.781 262.435 277.37C261.931 276.959 261.539 276.413 261.259 275.732C260.979 275.051 260.839 274.262 260.839 273.366C260.839 272.386 261.003 271.546 261.329 270.846C261.665 270.137 262.127 269.595 262.715 269.222C263.313 268.839 263.994 268.648 264.759 268.648C265.534 268.648 266.215 268.839 266.803 269.222C267.391 269.595 267.853 270.137 268.189 270.846C268.525 271.546 268.693 272.386 268.693 273.366C268.693 274.243 268.558 275.018 268.287 275.69C268.017 276.362 267.639 276.908 267.153 277.328C266.668 277.739 266.099 278 265.445 278.112C265.66 278.513 265.963 278.817 266.355 279.022C266.757 279.227 267.205 279.33 267.699 279.33C267.905 279.33 268.087 279.316 268.245 279.288C268.404 279.269 268.544 279.241 268.665 279.204L268.889 280.1C268.749 280.156 268.563 280.203 268.329 280.24C268.096 280.287 267.844 280.31 267.573 280.31ZM270.668 278V268.816H271.83V277.006H275.848V278H270.668Z" fill="#12122A"/>
<path d="M211.26 148V138.816H216.552V139.796H212.422V142.904H215.922V143.884H212.422V148H211.26ZM218.066 148V141.196H219.214V148H218.066ZM218.654 139.796C218.43 139.796 218.243 139.731 218.094 139.6C217.954 139.46 217.884 139.273 217.884 139.04C217.884 138.816 217.954 138.634 218.094 138.494C218.243 138.354 218.43 138.284 218.654 138.284C218.878 138.284 219.06 138.354 219.2 138.494C219.349 138.634 219.424 138.816 219.424 139.04C219.424 139.273 219.349 139.46 219.2 139.6C219.06 139.731 218.878 139.796 218.654 139.796ZM223.807 151.136C222.977 151.136 222.3 150.977 221.777 150.66C221.255 150.343 220.993 149.89 220.993 149.302C220.993 149.013 221.082 148.733 221.259 148.462C221.437 148.201 221.679 147.967 221.987 147.762V147.706C221.819 147.603 221.675 147.459 221.553 147.272C221.441 147.085 221.385 146.861 221.385 146.6C221.385 146.311 221.465 146.059 221.623 145.844C221.782 145.629 221.95 145.461 222.127 145.34V145.284C221.903 145.097 221.698 144.845 221.511 144.528C221.334 144.211 221.245 143.851 221.245 143.45C221.245 142.955 221.362 142.526 221.595 142.162C221.829 141.798 222.141 141.518 222.533 141.322C222.925 141.126 223.35 141.028 223.807 141.028C223.994 141.028 224.171 141.047 224.339 141.084C224.507 141.112 224.652 141.149 224.773 141.196H227.139V142.078H225.739C225.898 142.227 226.029 142.428 226.131 142.68C226.243 142.923 226.299 143.189 226.299 143.478C226.299 143.963 226.187 144.383 225.963 144.738C225.739 145.093 225.441 145.368 225.067 145.564C224.694 145.751 224.274 145.844 223.807 145.844C223.443 145.844 223.103 145.765 222.785 145.606C222.664 145.709 222.561 145.825 222.477 145.956C222.393 146.077 222.351 146.231 222.351 146.418C222.351 146.633 222.435 146.81 222.603 146.95C222.781 147.09 223.098 147.16 223.555 147.16H224.871C225.665 147.16 226.257 147.291 226.649 147.552C227.051 147.804 227.251 148.215 227.251 148.784C227.251 149.204 227.111 149.591 226.831 149.946C226.551 150.301 226.155 150.585 225.641 150.8C225.128 151.024 224.517 151.136 223.807 151.136ZM223.807 145.074C224.199 145.074 224.535 144.929 224.815 144.64C225.105 144.341 225.249 143.945 225.249 143.45C225.249 142.955 225.109 142.568 224.829 142.288C224.549 142.008 224.209 141.868 223.807 141.868C223.406 141.868 223.065 142.008 222.785 142.288C222.505 142.568 222.365 142.955 222.365 143.45C222.365 143.945 222.505 144.341 222.785 144.64C223.075 144.929 223.415 145.074 223.807 145.074ZM223.975 150.338C224.629 150.338 225.151 150.193 225.543 149.904C225.935 149.624 226.131 149.307 226.131 148.952C226.131 148.635 226.01 148.415 225.767 148.294C225.534 148.173 225.198 148.112 224.759 148.112H223.583C223.453 148.112 223.308 148.103 223.149 148.084C223 148.065 222.851 148.037 222.701 148C222.459 148.177 222.281 148.364 222.169 148.56C222.057 148.756 222.001 148.952 222.001 149.148C222.001 149.512 222.174 149.801 222.519 150.016C222.874 150.231 223.359 150.338 223.975 150.338ZM228.566 148V141.196H229.518L229.616 142.176H229.658C229.957 141.849 230.283 141.579 230.638 141.364C230.993 141.14 231.371 141.028 231.772 141.028C232.295 141.028 232.701 141.145 232.99 141.378C233.289 141.602 233.508 141.919 233.648 142.33C234.003 141.947 234.362 141.635 234.726 141.392C235.09 141.149 235.477 141.028 235.888 141.028C236.588 141.028 237.106 141.257 237.442 141.714C237.787 142.162 237.96 142.82 237.96 143.688V148H236.812V143.842C236.812 143.207 236.709 142.745 236.504 142.456C236.299 142.167 235.981 142.022 235.552 142.022C235.048 142.022 234.479 142.372 233.844 143.072V148H232.696V143.842C232.696 143.207 232.593 142.745 232.388 142.456C232.183 142.167 231.861 142.022 231.422 142.022C230.918 142.022 230.349 142.372 229.714 143.072V148H228.566ZM241.741 148.168C241.172 148.168 240.696 148 240.313 147.664C239.94 147.319 239.753 146.843 239.753 146.236C239.753 145.489 240.085 144.92 240.747 144.528C241.419 144.127 242.479 143.847 243.925 143.688C243.925 143.399 243.883 143.123 243.799 142.862C243.725 142.601 243.585 142.391 243.379 142.232C243.183 142.064 242.899 141.98 242.525 141.98C242.133 141.98 241.765 142.055 241.419 142.204C241.074 142.353 240.766 142.521 240.495 142.708L240.047 141.91C240.365 141.705 240.752 141.509 241.209 141.322C241.676 141.126 242.18 141.028 242.721 141.028C243.552 141.028 244.154 141.285 244.527 141.798C244.901 142.302 245.087 142.979 245.087 143.828V148H244.135L244.037 147.188H243.995C243.678 147.449 243.328 147.678 242.945 147.874C242.572 148.07 242.171 148.168 241.741 148.168ZM242.077 147.244C242.404 147.244 242.712 147.165 243.001 147.006C243.291 146.847 243.599 146.623 243.925 146.334V144.444C242.796 144.584 242.003 144.794 241.545 145.074C241.097 145.354 240.873 145.713 240.873 146.152C240.873 146.535 240.99 146.815 241.223 146.992C241.457 147.16 241.741 147.244 242.077 147.244Z" fill="#12122A"/>
<path d="M127.44 88.237L127.543 88.0468L127.474 87.8419C120.403 66.6288 98.5356 52.5 79 52.5C59.3939 52.5 43.5 68.3939 43.5 88C43.5 107.606 59.3939 123.5 79 123.5C88.8378 123.5 99.2001 117.913 107.94 110.762C116.691 103.603 123.904 94.8042 127.44 88.237Z" fill="#3854A4" stroke="#3854A4"/>
<path d="M77.808 93.168C77.164 93.168 76.5667 93.0467 76.016 92.804C75.4653 92.552 74.9893 92.2207 74.588 91.81L75.288 90.998C75.6147 91.3433 75.9973 91.6233 76.436 91.838C76.884 92.0433 77.346 92.146 77.822 92.146C78.4287 92.146 78.9 92.0107 79.236 91.74C79.572 91.46 79.74 91.096 79.74 90.648C79.74 90.3307 79.67 90.0787 79.53 89.892C79.3993 89.7053 79.2173 89.5467 78.984 89.416C78.76 89.2853 78.5033 89.1547 78.214 89.024L76.898 88.45C76.6087 88.3287 76.3193 88.17 76.03 87.974C75.75 87.778 75.512 87.526 75.316 87.218C75.1293 86.91 75.036 86.532 75.036 86.084C75.036 85.6173 75.1573 85.202 75.4 84.838C75.652 84.4647 75.9973 84.1753 76.436 83.97C76.8747 83.7553 77.3693 83.648 77.92 83.648C78.4707 83.648 78.9793 83.7553 79.446 83.97C79.9127 84.1753 80.3093 84.446 80.636 84.782L80.006 85.538C79.726 85.2673 79.4133 85.0573 79.068 84.908C78.732 84.7493 78.3493 84.67 77.92 84.67C77.4067 84.67 76.9913 84.7913 76.674 85.034C76.366 85.2767 76.212 85.6033 76.212 86.014C76.212 86.3033 76.2867 86.546 76.436 86.742C76.5947 86.9287 76.7907 87.0827 77.024 87.204C77.2573 87.3253 77.4953 87.4373 77.738 87.54L79.04 88.1C79.3947 88.2493 79.712 88.4313 79.992 88.646C80.2813 88.8513 80.51 89.108 80.678 89.416C80.846 89.7147 80.93 90.0927 80.93 90.55C80.93 91.0353 80.804 91.4787 80.552 91.88C80.3 92.272 79.9407 92.5847 79.474 92.818C79.0073 93.0513 78.452 93.168 77.808 93.168ZM86.1265 92.202C86.6772 92.202 87.1532 92.048 87.5545 91.74C87.9652 91.4227 88.2825 90.9793 88.5065 90.41C88.7305 89.8313 88.8425 89.15 88.8425 88.366C88.8425 87.2273 88.5952 86.3267 88.1005 85.664C87.6058 85.0013 86.9478 84.67 86.1265 84.67C85.3052 84.67 84.6472 85.0013 84.1525 85.664C83.6578 86.3267 83.4105 87.2273 83.4105 88.366C83.4105 89.15 83.5225 89.8313 83.7465 90.41C83.9705 90.9793 84.2878 91.4227 84.6985 91.74C85.1092 92.048 85.5852 92.202 86.1265 92.202ZM88.9405 95.31C88.0912 95.31 87.3818 95.1 86.8125 94.68C86.2432 94.2693 85.8232 93.7513 85.5525 93.126C84.8898 93.0327 84.3065 92.7807 83.8025 92.37C83.2985 91.9593 82.9065 91.4133 82.6265 90.732C82.3465 90.0507 82.2065 89.262 82.2065 88.366C82.2065 87.386 82.3698 86.546 82.6965 85.846C83.0325 85.1367 83.4945 84.5953 84.0825 84.222C84.6798 83.8393 85.3612 83.648 86.1265 83.648C86.9012 83.648 87.5825 83.8393 88.1705 84.222C88.7585 84.5953 89.2205 85.1367 89.5565 85.846C89.8925 86.546 90.0605 87.386 90.0605 88.366C90.0605 89.2433 89.9252 90.018 89.6545 90.69C89.3838 91.362 89.0058 91.908 88.5205 92.328C88.0352 92.7387 87.4658 93 86.8125 93.112C87.0272 93.5133 87.3305 93.8167 87.7225 94.022C88.1238 94.2273 88.5718 94.33 89.0665 94.33C89.2718 94.33 89.4538 94.316 89.6125 94.288C89.7712 94.2693 89.9112 94.2413 90.0325 94.204L90.2565 95.1C90.1165 95.156 89.9298 95.2027 89.6965 95.24C89.4632 95.2867 89.2112 95.31 88.9405 95.31ZM92.0354 93V83.816H93.1974V92.006H97.2154V93H92.0354Z" fill="#12122A"/>
<path d="M140.732 50.168C139.967 50.168 139.281 49.9813 138.674 49.608C138.077 49.2253 137.601 48.6793 137.246 47.97C136.901 47.2607 136.728 46.4067 136.728 45.408C136.728 44.4187 136.905 43.5693 137.26 42.86C137.615 42.1507 138.1 41.6047 138.716 41.222C139.332 40.8393 140.027 40.648 140.802 40.648C141.362 40.648 141.857 40.7647 142.286 40.998C142.715 41.222 143.061 41.4833 143.322 41.782L142.692 42.538C142.449 42.2767 142.174 42.0667 141.866 41.908C141.558 41.7493 141.208 41.67 140.816 41.67C140.237 41.67 139.729 41.824 139.29 42.132C138.861 42.4307 138.525 42.8553 138.282 43.406C138.049 43.9567 137.932 44.6147 137.932 45.38C137.932 46.1453 138.049 46.8127 138.282 47.382C138.515 47.942 138.842 48.376 139.262 48.684C139.691 48.992 140.195 49.146 140.774 49.146C141.213 49.146 141.605 49.0527 141.95 48.866C142.295 48.6793 142.613 48.4273 142.902 48.11L143.546 48.838C143.182 49.258 142.771 49.5847 142.314 49.818C141.857 50.0513 141.329 50.168 140.732 50.168ZM147.464 50.168C146.82 50.168 146.223 50.0467 145.672 49.804C145.122 49.552 144.646 49.2207 144.244 48.81L144.944 47.998C145.271 48.3433 145.654 48.6233 146.092 48.838C146.54 49.0433 147.002 49.146 147.478 49.146C148.085 49.146 148.556 49.0107 148.892 48.74C149.228 48.46 149.396 48.096 149.396 47.648C149.396 47.3307 149.326 47.0787 149.186 46.892C149.056 46.7053 148.874 46.5467 148.64 46.416C148.416 46.2853 148.16 46.1547 147.87 46.024L146.554 45.45C146.265 45.3287 145.976 45.17 145.686 44.974C145.406 44.778 145.168 44.526 144.972 44.218C144.786 43.91 144.692 43.532 144.692 43.084C144.692 42.6173 144.814 42.202 145.056 41.838C145.308 41.4647 145.654 41.1753 146.092 40.97C146.531 40.7553 147.026 40.648 147.576 40.648C148.127 40.648 148.636 40.7553 149.102 40.97C149.569 41.1753 149.966 41.446 150.292 41.782L149.662 42.538C149.382 42.2673 149.07 42.0573 148.724 41.908C148.388 41.7493 148.006 41.67 147.576 41.67C147.063 41.67 146.648 41.7913 146.33 42.034C146.022 42.2767 145.868 42.6033 145.868 43.014C145.868 43.3033 145.943 43.546 146.092 43.742C146.251 43.9287 146.447 44.0827 146.68 44.204C146.914 44.3253 147.152 44.4373 147.394 44.54L148.696 45.1C149.051 45.2493 149.368 45.4313 149.648 45.646C149.938 45.8513 150.166 46.108 150.334 46.416C150.502 46.7147 150.586 47.0927 150.586 47.55C150.586 48.0353 150.46 48.4787 150.208 48.88C149.956 49.272 149.597 49.5847 149.13 49.818C148.664 50.0513 148.108 50.168 147.464 50.168ZM154.751 50.168C154.107 50.168 153.51 50.0467 152.959 49.804C152.409 49.552 151.933 49.2207 151.531 48.81L152.231 47.998C152.558 48.3433 152.941 48.6233 153.379 48.838C153.827 49.0433 154.289 49.146 154.765 49.146C155.372 49.146 155.843 49.0107 156.179 48.74C156.515 48.46 156.683 48.096 156.683 47.648C156.683 47.3307 156.613 47.0787 156.473 46.892C156.343 46.7053 156.161 46.5467 155.927 46.416C155.703 46.2853 155.447 46.1547 155.157 46.024L153.841 45.45C153.552 45.3287 153.263 45.17 152.973 44.974C152.693 44.778 152.455 44.526 152.259 44.218C152.073 43.91 151.979 43.532 151.979 43.084C151.979 42.6173 152.101 42.202 152.343 41.838C152.595 41.4647 152.941 41.1753 153.379 40.97C153.818 40.7553 154.313 40.648 154.863 40.648C155.414 40.648 155.923 40.7553 156.389 40.97C156.856 41.1753 157.253 41.446 157.579 41.782L156.949 42.538C156.669 42.2673 156.357 42.0573 156.011 41.908C155.675 41.7493 155.293 41.67 154.863 41.67C154.35 41.67 153.935 41.7913 153.617 42.034C153.309 42.2767 153.155 42.6033 153.155 43.014C153.155 43.3033 153.23 43.546 153.379 43.742C153.538 43.9287 153.734 44.0827 153.967 44.204C154.201 44.3253 154.439 44.4373 154.681 44.54L155.983 45.1C156.338 45.2493 156.655 45.4313 156.935 45.646C157.225 45.8513 157.453 46.108 157.621 46.416C157.789 46.7147 157.873 47.0927 157.873 47.55C157.873 48.0353 157.747 48.4787 157.495 48.88C157.243 49.272 156.884 49.5847 156.417 49.818C155.951 50.0513 155.395 50.168 154.751 50.168Z" fill="#12122A"/>
<path d="M181.26 90V80.816H182.422V84.666H186.692V80.816H187.868V90H186.692V85.674H182.422V90H181.26ZM192.297 90V81.796H189.525V80.816H196.245V81.796H193.473V90H192.297ZM197.899 90V80.816H199.299L201.063 85.716C201.175 86.0333 201.282 86.3553 201.385 86.682C201.497 86.9993 201.609 87.3167 201.721 87.634H201.777C201.889 87.3167 201.991 86.9993 202.085 86.682C202.187 86.3553 202.295 86.0333 202.407 85.716L204.143 80.816H205.557V90H204.465V84.946C204.465 84.5353 204.483 84.0827 204.521 83.588C204.558 83.084 204.591 82.6313 204.619 82.23H204.563L203.835 84.316L202.099 89.076H201.329L199.593 84.316L198.865 82.23H198.809C198.837 82.6313 198.865 83.084 198.893 83.588C198.93 84.0827 198.949 84.5353 198.949 84.946V90H197.899ZM208.071 90V80.816H209.233V89.006H213.251V90H208.071Z" fill="#12122A"/>
<path d="M131.732 140.168C130.967 140.168 130.281 139.981 129.674 139.608C129.077 139.225 128.601 138.679 128.246 137.97C127.901 137.261 127.728 136.407 127.728 135.408C127.728 134.419 127.905 133.569 128.26 132.86C128.615 132.151 129.1 131.605 129.716 131.222C130.332 130.839 131.027 130.648 131.802 130.648C132.362 130.648 132.857 130.765 133.286 130.998C133.715 131.222 134.061 131.483 134.322 131.782L133.692 132.538C133.449 132.277 133.174 132.067 132.866 131.908C132.558 131.749 132.208 131.67 131.816 131.67C131.237 131.67 130.729 131.824 130.29 132.132C129.861 132.431 129.525 132.855 129.282 133.406C129.049 133.957 128.932 134.615 128.932 135.38C128.932 136.145 129.049 136.813 129.282 137.382C129.515 137.942 129.842 138.376 130.262 138.684C130.691 138.992 131.195 139.146 131.774 139.146C132.213 139.146 132.605 139.053 132.95 138.866C133.295 138.679 133.613 138.427 133.902 138.11L134.546 138.838C134.182 139.258 133.771 139.585 133.314 139.818C132.857 140.051 132.329 140.168 131.732 140.168ZM136.258 140L136.608 137.144H135.488V136.346H136.706L136.958 134.274H135.768V133.462H137.056L137.378 130.9H138.12L137.798 133.462H139.66L139.996 130.9H140.738L140.402 133.462H141.536V134.274H140.318L140.066 136.346H141.256V137.144H139.968L139.618 140H138.876L139.212 137.144H137.364L137.014 140H136.258ZM137.462 136.346H139.31L139.562 134.274H137.714L137.462 136.346Z" fill="#73CEDD"/>
</svg>
